<?xml version="1.0" encoding="UTF-8"?><svg id="Calque_1" xmlns="http://www.w3.org/2000/svg" viewBox="0 0 177.91 50.64"><defs><style>.cls-1{fill:#1d1d1b;}.cls-2{fill:#756d82;}.cls-2,.cls-3,.cls-4{opacity:.5;}.cls-3{fill:#73905a;}.cls-4{fill:#ea6543;}</style></defs><path class="cls-2" d="m30.28,12.71c.37-.16.78-.25,1.21-.25s.81.08,1.17.23c.24-.03.48-.04.73-.04,1.65,0,3.14.63,4.26,1.67-.55-2.9-3.1-5.1-6.17-5.1s-5.49,2.09-6.13,4.89c1.09-.91,2.5-1.47,4.03-1.47.3,0,.59.02.88.06Z"/><path class="cls-3" d="m37.66,14.32c.07.38.11.78.11,1.18,0,1.93-.87,3.66-2.25,4.82-.48,2.15-2.07,3.87-4.13,4.56.63.21,1.3.33,2,.33,3.47,0,6.28-2.81,6.28-6.28,0-1.82-.78-3.46-2.02-4.61Z"/><path class="cls-2" d="m32.67,12.69c1.04.43,1.79,1.43,1.86,2.61.72,1.02,1.15,2.27,1.15,3.62,0,.48-.06.94-.16,1.39,1.37-1.15,2.25-2.88,2.25-4.82,0-.4-.04-.8-.11-1.18-1.12-1.04-2.62-1.67-4.26-1.67-.25,0-.49.02-.73.04Z"/><path class="cls-3" d="m32.67,12.69c1.04.43,1.79,1.43,1.86,2.61.72,1.02,1.15,2.27,1.15,3.62,0,.48-.06.94-.16,1.39,1.37-1.15,2.25-2.88,2.25-4.82,0-.4-.04-.8-.11-1.18-1.12-1.04-2.62-1.67-4.26-1.67-.25,0-.49.02-.73.04Z"/><path class="cls-4" d="m27.23,20.12c-1.24-1.15-2.02-2.79-2.02-4.61,0-.48.06-.94.16-1.39-1.37,1.15-2.25,2.88-2.25,4.82,0,3.47,2.81,6.28,6.28,6.28.7,0,1.37-.12,2-.33-2.13-.71-3.74-2.53-4.17-4.77Z"/><path class="cls-2" d="m27.23,20.12c-.07-.38-.11-.78-.11-1.18,0-1.48.52-2.85,1.38-3.92.17-1.03.86-1.89,1.79-2.3-.29-.04-.58-.06-.88-.06-1.53,0-2.94.55-4.03,1.47-.1.45-.16.91-.16,1.39,0,1.82.78,3.46,2.02,4.61Z"/><path class="cls-4" d="m27.23,20.12c-.07-.38-.11-.78-.11-1.18,0-1.48.52-2.85,1.38-3.92.17-1.03.86-1.89,1.79-2.3-.29-.04-.58-.06-.88-.06-1.53,0-2.94.55-4.03,1.47-.1.45-.16.91-.16,1.39,0,1.82.78,3.46,2.02,4.61Z"/><path class="cls-3" d="m35.53,20.32c-1.06.89-2.42,1.43-3.91,1.46-.04,0-.08,0-.12,0,0,0-.02,0-.06,0-1.62-.01-3.1-.65-4.21-1.67.43,2.24,2.04,4.06,4.17,4.77,2.06-.69,3.64-2.42,4.13-4.56Z"/><path class="cls-4" d="m35.53,20.32c-1.06.89-2.42,1.43-3.91,1.46-.04,0-.08,0-.12,0,0,0-.02,0-.06,0-1.62-.01-3.1-.65-4.21-1.67.43,2.24,2.04,4.06,4.17,4.77,2.06-.69,3.64-2.42,4.13-4.56Z"/><path class="cls-2" d="m30.73,21.22l-1.9-4.19s-.38-.76-.38-1.52c0-.17.02-.33.04-.5-.86,1.07-1.38,2.44-1.38,3.92,0,.4.04.8.11,1.18,1.11,1.02,2.58,1.66,4.21,1.67-.14-.01-.51-.09-.7-.57Z"/><path class="cls-3" d="m30.73,21.22l-1.9-4.19s-.38-.76-.38-1.52c0-.17.02-.33.04-.5-.86,1.07-1.38,2.44-1.38,3.92,0,.4.04.8.11,1.18,1.11,1.02,2.58,1.66,4.21,1.67-.14-.01-.51-.09-.7-.57Z"/><path class="cls-4" d="m30.73,21.22l-1.9-4.19s-.38-.76-.38-1.52c0-.17.02-.33.04-.5-.86,1.07-1.38,2.44-1.38,3.92,0,.4.04.8.11,1.18,1.11,1.02,2.58,1.66,4.21,1.67-.14-.01-.51-.09-.7-.57Z"/><circle class="cls-2" cx="31.52" cy="15.5" r="1.62"/><circle class="cls-3" cx="31.52" cy="15.5" r="1.62"/><circle class="cls-4" cx="31.52" cy="15.5" r="1.62"/><path class="cls-2" d="m34.53,15.31c0,.07,0,.13,0,.2,0,0,0,.76-.38,1.52l-1.9,4.19s-.17.52-.64.57c1.49-.03,2.85-.57,3.91-1.46.1-.45.16-.91.16-1.39,0-1.35-.43-2.6-1.15-3.62Z"/><path class="cls-3" d="m34.53,15.31c0,.07,0,.13,0,.2,0,0,0,.76-.38,1.52l-1.9,4.19s-.17.52-.64.57c1.49-.03,2.85-.57,3.91-1.46.1-.45.16-.91.16-1.39,0-1.35-.43-2.6-1.15-3.62Z"/><path class="cls-4" d="m34.53,15.31c0,.07,0,.13,0,.2,0,0,0,.76-.38,1.52l-1.9,4.19s-.17.52-.64.57c1.49-.03,2.85-.57,3.91-1.46.1-.45.16-.91.16-1.39,0-1.35-.43-2.6-1.15-3.62Z"/><path class="cls-1" d="m2.09,24.28H.81c-.54,0-.81-.22-.81-.66V1.22c0-.44.27-.66.8-.66h16.29c2.38,0,4.3.67,5.77,2.01,1.31,1.19,1.96,2.68,1.96,4.47s-.65,3.29-1.95,4.47c-1.46,1.34-3.38,2.01-5.75,2.01H2.9v10.1c0,.44-.27.66-.81.66ZM2.9,2.71v8.65h14.58c1.33,0,2.44-.47,3.32-1.42.74-.78,1.11-1.76,1.11-2.92s-.37-2.08-1.1-2.9c-.84-.94-1.95-1.41-3.34-1.41"/><path class="cls-1" d="m50.98,24.49c-2.05,0-3.66-.56-4.82-1.69-1.19-1.16-1.79-2.76-1.79-4.8v-8.81h-3.87c-.54,0-.81-.26-.81-.79v-.84c0-.53.27-.79.81-.79h5.8c.54,0,.8.26.8.79v10.8c0,1.16.36,2.07,1.08,2.74.71.66,1.64.98,2.79.98h1.69c.48,0,.73.24.73.71v1c0,.47-.24.71-.73.71h-1.69ZM45.1,0c.63,0,1.14.19,1.51.58.43.44.64.96.64,1.55s-.21,1.1-.64,1.51c-.42.41-.92.61-1.51.61s-1.12-.19-1.51-.58c-.43-.42-.64-.93-.64-1.55s.21-1.12.64-1.52c.43-.4.93-.6,1.51-.6Z"/><path class="cls-1" d="m56.89,24.49c-.48,0-.73-.24-.73-.71V7.48c0-.47.24-.71.73-.71h1.29c.48,0,.72.24.72.71v.48c1.1-1.01,2.43-1.51,4-1.51,1.97,0,3.53.56,4.69,1.69,1.19,1.16,1.79,2.76,1.79,4.8v10.84c0,.47-.24.71-.73.71h-1.29c-.48,0-.72-.24-.72-.71v-10.84c0-1.22-.35-2.21-1.06-2.95-.72-.75-1.75-1.13-3.08-1.13-1.64,0-2.84.59-3.59,1.76v13.16c0,.47-.24.71-.72.71h-1.29Z"/><path class="cls-1" d="m84.29,24.49c-2.07,0-3.7-.57-4.87-1.71-1.21-1.18-1.82-2.8-1.82-4.87v-8.73h-4.42c-.54,0-.81-.26-.81-.79v-.84c0-.53.27-.79.81-.79h4.42V1.11c0-.53.27-.79.81-.79h1.13c.54,0,.81.26.81.79v5.66h4.58c.54,0,.81.26.81.79v.84c0,.53-.27.79-.81.79h-4.58v9.09c0,1.14.38,2.06,1.13,2.75.75.7,1.69,1.05,2.82,1.05h1.69c.54,0,.81.26.81.79v.84c0,.53-.27.79-.81.79h-1.69Z"/><path class="cls-1" d="m108.41,39.85c-2.05,0-3.66-.56-4.82-1.69-1.19-1.16-1.79-2.76-1.79-4.8v-8.81h-3.87c-.54,0-.81-.26-.81-.79v-.84c0-.53.27-.79.81-.79h5.8c.54,0,.8.26.8.79v10.8c0,1.16.36,2.07,1.08,2.74.71.66,1.64.98,2.79.98h1.69c.48,0,.73.24.73.71v1c0,.47-.24.71-.73.71h-1.69Zm-5.88-24.49c.63,0,1.14.19,1.51.58.43.44.64.96.64,1.55s-.21,1.1-.64,1.51c-.42.41-.92.61-1.51.61s-1.12-.19-1.51-.58c-.43-.42-.64-.93-.64-1.55s.21-1.12.64-1.52c.43-.4.93-.6,1.51-.6Z"/><path class="cls-1" d="m114.32,39.85c-.48,0-.73-.24-.73-.71v-16.31c0-.47.24-.71.73-.71h1.29c.48,0,.72.24.72.71v.48c1.1-1.01,2.43-1.51,4-1.51,1.97,0,3.53.56,4.69,1.69,1.19,1.16,1.79,2.76,1.79,4.8v10.84c0,.47-.24.71-.73.71h-1.29c-.48,0-.72-.24-.72-.71v-10.84c0-1.22-.35-2.21-1.06-2.95-.72-.75-1.75-1.13-3.08-1.13-1.64,0-2.84.59-3.59,1.76v13.16c0,.47-.24.71-.72.71h-1.29Z"/><path class="cls-1" d="m141.29,39.85c-.45,0-.68-.24-.68-.71v-.45c-1.04.99-2.21,1.48-3.5,1.48-1.93,0-3.54-.75-4.82-2.24-1.57-1.82-2.35-4.14-2.35-6.96s.78-5.2,2.34-6.9c1.39-1.51,3-2.27,4.83-2.27,1.31,0,2.48.5,3.5,1.5v-6.91c0-.47.23-.71.68-.71h1.37c.46,0,.69.24.69.71v22.75c0,.47-.23.71-.69.71h-1.37Zm-.68-13.82c-.71-1.15-1.74-1.73-3.09-1.73s-2.47.51-3.33,1.52c-1,1.16-1.5,2.87-1.5,5.11s.48,3.94,1.45,5.1c.92,1.1,2.06,1.65,3.42,1.65s2.35-.6,3.06-1.79v-9.85Z"/><path class="cls-1" d="m154.51,40.17c-2.09,0-3.78-.75-5.06-2.24-1.53-1.81-2.29-4.13-2.29-6.94s.76-5.21,2.29-6.91c1.36-1.51,3.05-2.27,5.05-2.27s3.69.76,5.05,2.27c1.29,1.44,2.03,3.07,2.24,4.88,0,.08.02.15.02.23,0,.63-.35,1.07-1.05,1.31l-10.36,3.77c.12.52.43,1.1.93,1.75.89,1.11,1.94,1.66,3.14,1.66,1.42,0,2.58-.53,3.48-1.58.18-.21.4-.32.64-.32.17,0,.33.08.48.22l.81.81c.2.2.31.41.31.61,0,.15-.08.32-.24.52-1.25,1.49-3.06,2.24-5.45,2.24Zm4.31-11.72c-.16-.87-.57-1.74-1.21-2.62-.76-1.03-1.8-1.54-3.12-1.54-1.22,0-2.26.52-3.12,1.55-.97,1.18-1.46,2.88-1.46,5.09,0,.26,0,.51.02.76l8.9-3.24Z"/><path class="cls-1" d="m166.93,39.85c-.54,0-.81-.26-.81-.79v-16.15c0-.53.27-.79.81-.79h1.13c.54,0,.81.27.81.8v.31c1.02-.96,2.33-1.43,3.92-1.43,1.83,0,3.41.58,4.74,1.73.15.13.22.31.22.54,0,.2-.1.41-.31.61l-.79.79c-.15.15-.31.23-.48.23-.19,0-.41-.11-.64-.32-.77-.72-1.81-1.08-3.11-1.08-1.57,0-2.75.6-3.54,1.8v12.96c0,.53-.27.79-.81.79h-1.13Z"/><path class="cls-1" d="m93.13,39.87h-1.29c-.54,0-.81-.22-.81-.66V1.23c0-.44.27-.66.81-.66h19.09c.54,0,.81.22.81.66v.84c0,.44-.27.66-.81.66h-17v8.64h14.03c.54,0,.81.22.81.66v.84c0,.44-.27.66-.81.66h-14.03v25.67c0,.44-.27.66-.81.66Z"/><path class="cls-1" d="m94.88,47.42c0-.83,0-1.64.03-2.08h-.02c-.18.63-.98,2.64-1.5,4h-.41c-.4-1.08-1.22-3.32-1.42-4.01h-.02c.03.5.05,1.48.05,2.22v1.79h-.43v-4.32h.66c.55,1.42,1.23,3.26,1.38,3.78h.01c.1-.36.9-2.4,1.46-3.78h.65v4.32h-.44v-1.92Z"/><path class="cls-1" d="m98.09,48.71c0,.28.03.54.04.63h-.4c-.02-.07-.04-.21-.05-.45-.11.22-.37.52-1,.52-.73,0-1.04-.47-1.04-.94,0-.69.54-1,1.47-1h.56v-.29c0-.29-.09-.67-.74-.67-.58,0-.67.3-.73.55h-.41c.04-.38.28-.9,1.15-.9.73,0,1.14.3,1.14,1v1.56Zm-.41-.93h-.56c-.66,0-1.05.18-1.05.67,0,.36.25.62.67.62.83,0,.94-.55.94-1.18v-.11Z"/><path class="cls-1" d="m99.05,48.91v1.66h-.41v-3.59c0-.25,0-.52,0-.76h.41c.01.11.02.3.02.53.18-.35.51-.6,1.06-.6.73,0,1.25.61,1.25,1.55,0,1.12-.6,1.71-1.35,1.71-.53,0-.8-.23-.95-.5Zm1.87-1.2c0-.69-.33-1.2-.91-1.2-.71,0-.99.44-.99,1.25s.23,1.28.95,1.28c.61,0,.95-.51.95-1.33Z"/><path class="cls-1" d="m102.08,48.91v1.66h-.41v-3.59c0-.25,0-.52,0-.76h.41c.01.11.02.3.02.53.18-.35.51-.6,1.06-.6.73,0,1.25.61,1.25,1.55,0,1.12-.6,1.71-1.35,1.71-.53,0-.8-.23-.95-.5Zm1.87-1.2c0-.69-.33-1.2-.91-1.2-.71,0-.99.44-.99,1.25s.23,1.28.95,1.28c.61,0,.95-.51.95-1.33Z"/><path class="cls-1" d="m104.72,44.78h.42v.64h-.42v-.64Zm0,1.44h.42v3.12h-.42v-3.12Z"/><path class="cls-1" d="m105.68,47.01c0-.27,0-.54,0-.79h.4c.01.1.02.47.02.56.13-.29.39-.63,1.01-.63.57,0,1.04.33,1.04,1.18v2.01h-.42v-1.96c0-.52-.21-.86-.72-.86-.67,0-.92.54-.92,1.2v1.62h-.42v-2.33Z"/><path class="cls-1" d="m111.16,49.1c0,1-.43,1.54-1.38,1.54-.87,0-1.19-.49-1.25-.94h.42c.1.39.42.58.85.58.76,0,.97-.49.97-1.25v-.29c-.17.38-.46.59-1.01.59-.75,0-1.29-.61-1.29-1.55,0-1.03.6-1.63,1.34-1.63.62,0,.88.29.96.52,0-.16.02-.38.02-.45h.39c0,.14-.01.6-.01.9v1.97Zm-2.27-1.33c0,.7.37,1.2.93,1.2.73,0,.95-.49.95-1.24s-.22-1.2-.93-1.2c-.65,0-.95.56-.95,1.25Z"/><path class="cls-1" d="m116.68,47.42c0-.83,0-1.64.03-2.08h-.02c-.18.63-.98,2.64-1.5,4h-.41c-.4-1.08-1.22-3.32-1.42-4.01h-.02c.03.5.04,1.48.04,2.22v1.79h-.43v-4.32h.66c.55,1.42,1.23,3.26,1.38,3.78h.01c.1-.36.89-2.4,1.46-3.78h.65v4.32h-.44v-1.92Z"/><path class="cls-1" d="m120.33,47.77c0,.88-.5,1.64-1.44,1.64-.86,0-1.4-.69-1.4-1.63s.51-1.63,1.43-1.63c.85,0,1.4.65,1.4,1.63Zm-2.4,0c0,.71.37,1.27.99,1.27s.98-.52.98-1.27-.35-1.27-.99-1.27-.97.54-.97,1.27Z"/><path class="cls-1" d="m120.63,47.03c0-.27,0-.56,0-.8h.4c0,.1.02.35.02.52.14-.3.42-.59.92-.59.44,0,.76.22.88.59.16-.31.46-.59,1.01-.59.49,0,.98.29.98,1.14v2.05h-.41v-2c0-.39-.14-.81-.68-.81s-.81.44-.81,1.02v1.79h-.41v-1.99c0-.43-.13-.82-.66-.82s-.83.48-.83,1.09v1.72h-.41v-2.31Z"/><path class="cls-1" d="m125.57,47.84c0,.73.37,1.2.94,1.2s.72-.3.83-.54h.42c-.13.41-.46.9-1.27.9-.96,0-1.34-.81-1.34-1.6,0-.91.45-1.66,1.38-1.66.98,0,1.3.82,1.3,1.44,0,.09,0,.17,0,.26h-2.25Zm1.83-.32c0-.57-.31-1.02-.88-1.02s-.87.42-.93,1.02h1.81Z"/><path class="cls-1" d="m128.13,47.01c0-.27,0-.54,0-.79h.41c.01.1.02.47.02.56.13-.29.39-.63,1.01-.63.57,0,1.04.33,1.04,1.18v2.01h-.42v-1.96c0-.52-.21-.86-.72-.86-.67,0-.92.54-.92,1.2v1.62h-.42v-2.33Z"/><path class="cls-1" d="m130.68,46.22h.56v-.95h.42v.95h.72v.36h-.72v1.93c0,.33.07.51.37.51.08,0,.21,0,.3-.03v.33c-.12.05-.28.06-.42.06-.44,0-.66-.22-.66-.73v-2.07h-.56v-.36Z"/><path class="cls-1" d="m132.75,48.46c.1.38.37.6.83.6.51,0,.71-.23.71-.55s-.15-.48-.8-.64c-.84-.2-1.04-.46-1.04-.88s.32-.85,1.07-.85,1.08.45,1.13.88h-.41c-.05-.23-.23-.54-.74-.54s-.64.24-.64.47c0,.26.14.39.74.54.91.22,1.11.52,1.11.98,0,.56-.45.93-1.16.93-.75,0-1.15-.39-1.24-.95h.42Z"/><path class="cls-1" d="m134.65,50.05c.31-.64.42-1.19.44-1.55h.42c-.05.53-.25,1.16-.5,1.55h-.35Z"/><path class="cls-1" d="m137.11,45.01h2.69v.39h-2.25v1.53h2.11v.39h-2.11v2.01h-.44v-4.32Z"/><path class="cls-1" d="m140.02,44.78h.42v.64h-.42v-.64Zm0,1.44h.42v3.12h-.42v-3.12Z"/><path class="cls-1" d="m140.98,47.01c0-.27,0-.54,0-.79h.41c.01.1.02.47.02.56.13-.29.39-.63,1.01-.63.57,0,1.04.33,1.04,1.18v2.01h-.42v-1.96c0-.52-.21-.86-.72-.86-.67,0-.92.54-.92,1.2v1.62h-.42v-2.33Z"/><path class="cls-1" d="m146.49,44.78v3.67c0,.3,0,.58,0,.89h-.4c-.01-.08-.02-.35-.02-.49-.15.35-.49.56-1.02.56-.81,0-1.29-.66-1.29-1.6s.53-1.67,1.38-1.67c.59,0,.84.25.93.44v-1.8h.42Zm-2.29,3.02c0,.81.4,1.25.92,1.25.78,0,.97-.55.97-1.33s-.17-1.2-.92-1.2c-.59,0-.97.47-.97,1.29Z"/><path class="cls-1" d="m147.03,44.78h.42v.64h-.42v-.64Zm0,1.44h.42v3.12h-.42v-3.12Z"/><path class="cls-1" d="m147.99,47.01c0-.27,0-.54,0-.79h.4c.01.1.02.47.02.56.13-.29.39-.63,1.01-.63.57,0,1.04.33,1.04,1.18v2.01h-.42v-1.96c0-.52-.21-.86-.72-.86-.67,0-.92.54-.92,1.2v1.62h-.42v-2.33Z"/><path class="cls-1" d="m153.47,49.1c0,1-.43,1.54-1.38,1.54-.87,0-1.19-.49-1.25-.94h.42c.1.39.42.58.85.58.76,0,.97-.49.97-1.25v-.29c-.17.38-.46.59-1.01.59-.75,0-1.29-.61-1.29-1.55,0-1.03.6-1.63,1.34-1.63.62,0,.88.29.96.52,0-.16.02-.38.02-.45h.39c0,.14-.01.6-.01.9v1.97Zm-2.27-1.33c0,.7.37,1.2.93,1.2.73,0,.95-.49.95-1.24s-.22-1.2-.93-1.2c-.65,0-.95.56-.95,1.25Z"/><path class="cls-1" d="m158.99,47.42c0-.83,0-1.64.03-2.08h-.02c-.18.63-.98,2.64-1.5,4h-.41c-.4-1.08-1.22-3.32-1.42-4.01h-.02c.03.5.04,1.48.04,2.22v1.79h-.43v-4.32h.66c.55,1.42,1.23,3.26,1.38,3.78h.01c.1-.36.89-2.4,1.46-3.78h.65v4.32h-.44v-1.92Z"/><path class="cls-1" d="m160.22,47.84c0,.73.37,1.2.94,1.2s.72-.3.83-.54h.42c-.13.41-.46.9-1.27.9-.96,0-1.34-.81-1.34-1.6,0-.91.45-1.66,1.38-1.66.98,0,1.3.82,1.3,1.44,0,.09,0,.17,0,.26h-2.25Zm1.83-.32c0-.57-.31-1.02-.88-1.02s-.87.42-.93,1.02h1.81Z"/><path class="cls-1" d="m162.78,47.03c0-.27,0-.56,0-.8h.4c0,.1.02.35.02.52.14-.3.42-.59.92-.59.44,0,.76.22.88.59.16-.31.46-.59,1.01-.59.49,0,.98.29.98,1.14v2.05h-.41v-2c0-.39-.14-.81-.68-.81s-.81.44-.81,1.02v1.79h-.41v-1.99c0-.43-.13-.82-.66-.82s-.83.48-.83,1.09v1.72h-.41v-2.31Z"/><path class="cls-1" d="m170.13,47.77c0,.88-.5,1.64-1.44,1.64-.87,0-1.4-.69-1.4-1.63s.51-1.63,1.43-1.63c.85,0,1.4.65,1.4,1.63Zm-2.4,0c0,.71.37,1.27.99,1.27s.98-.52.98-1.27-.35-1.27-.99-1.27-.98.54-.98,1.27Z"/><path class="cls-1" d="m170.44,47.07c0-.48,0-.72,0-.85h.41c0,.09.01.31.01.67.17-.45.56-.72,1.07-.74v.43c-.64.03-1.07.43-1.07,1.19v1.57h-.42v-2.27Z"/><path class="cls-1" d="m172.05,44.78h.42v.64h-.42v-.64Zm0,1.44h.42v3.12h-.42v-3.12Z"/><path class="cls-1" d="m173.19,47.84c0,.73.37,1.2.94,1.2s.72-.3.83-.54h.42c-.13.41-.46.9-1.27.9-.96,0-1.34-.81-1.34-1.6,0-.91.45-1.66,1.38-1.66.98,0,1.3.82,1.3,1.44,0,.09,0,.17,0,.26h-2.25Zm1.83-.32c0-.57-.31-1.02-.88-1.02s-.87.42-.93,1.02h1.81Z"/><path class="cls-1" d="m175.93,48.46c.1.38.37.6.83.6.51,0,.71-.23.71-.55s-.15-.48-.8-.64c-.84-.2-1.04-.46-1.04-.88s.32-.85,1.07-.85,1.08.45,1.13.88h-.41c-.05-.23-.23-.54-.74-.54s-.64.24-.64.47c0,.26.14.39.74.54.91.22,1.11.52,1.11.98,0,.56-.45.93-1.16.93-.75,0-1.15-.39-1.24-.95h.42Z"/></svg>